<?xml version="1.0" encoding="UTF-8" standalone="no"?>
<svg
   width="32"
   height="32"
   version="1"
   id="svg6"
   sodipodi:docname="chromium.svg"
   inkscape:version="1.4.4 (dcaf3e7d9e, 2026-05-05)"
   xmlns:inkscape="http://www.inkscape.org/namespaces/inkscape"
   xmlns:sodipodi="http://sodipodi.sourceforge.net/DTD/sodipodi-0.dtd"
   xmlns="http://www.w3.org/2000/svg"
   xmlns:svg="http://www.w3.org/2000/svg">
  <defs
     id="defs6" />
  <sodipodi:namedview
     id="namedview6"
     pagecolor="#ffffff"
     bordercolor="#000000"
     borderopacity="0.25"
     inkscape:showpageshadow="2"
     inkscape:pageopacity="0.0"
     inkscape:pagecheckerboard="0"
     inkscape:deskcolor="#d1d1d1"
     inkscape:zoom="37.15625"
     inkscape:cx="16"
     inkscape:cy="16"
     inkscape:window-width="2560"
     inkscape:window-height="1397"
     inkscape:window-x="0"
     inkscape:window-y="0"
     inkscape:window-maximized="1"
     inkscape:current-layer="svg6" />
  <circle
     style="opacity:0.2"
     cx="16"
     cy="17"
     r="14"
     id="circle1" />
  <path
     style="fill:#f66161;fill-opacity:1"
     d="M 4.349,8.252 C 4.108,8.618 3.885,9.01 3.66,9.398 A 14,14 0 0 0 2,16 14,14 0 0 0 16,30 14,14 0 0 0 16.215,29.992 L 22.844,18.969 C 22.313,19.834 20.101,20.941 19.156,21.487 16.135,23.231 12.299,22.104 10.554,19.083 L 4.349,8.253 Z"
     id="path1" />
  <path
     style="fill:#d73939;fill-opacity:1"
     d="M 15.997,2 C 15.467,2 15.211,2.022 15.01,2.035 14.075,2.089 13.162,2.286 12.256,2.51 9.206,3.357 5.931,5.463 3.883,9.01 L 9.988,19.586 12.443,21.559 18.223,19.088 13.471,10.855 C 13.905,9.853 14.666,9.149 16,9 H 28.104 C 27.098,7.262 24.553,3.816 19.645,2.5 18.063,2.065 16.611,2 16.003,2 Z"
     id="path2" />
  <path
     style="fill:#faa2a2;fill-opacity:1"
     d="M 16.016,9 C 16,9 18.238,9.998 19.182,10.543 21.594,11.936 21.846,16.91 21.852,18.924 L 22.256,19.158 16,29.992 C 16.037,29.993 16.074,29.996 16.111,29.996 16.305,29.993 16.498,29.986 16.691,29.975 22.996,29.683 29.999,24.482 30,16 29.994,13.541 29.34,11.126 28.104,9 Z"
     id="path3" />
  <path
     style="opacity:0.2;fill:#ffffff"
     d="m16 2a14 14 0 0 0 -14 14 14 14 0 0 0 0.0215 0.586 14 14 0 0 1 13.978 -13.586 14 14 0 0 1 13.979 13.414 14 14 0 0 0 0.021 -0.414 14 14 0 0 0 -14 -14z"
     id="path4" />
  <circle
     style="opacity:0.2"
     cx="16"
     cy="17"
     r="7"
     id="circle4" />
  <circle
     style="fill:#ffd601;fill-opacity:1"
     cx="16"
     cy="16"
     r="7"
     id="circle5" />
  <circle
     style="fill:#ff0202;fill-opacity:1"
     cx="16"
     cy="16"
     r="5"
     id="circle6" />
</svg>
