<?xml version="1.0" encoding="UTF-8" standalone="no"?>
<svg
   width="32"
   height="32"
   version="1.1"
   id="svg4"
   sodipodi:docname="distributor-logo-openmandriva.svg"
   inkscape:version="1.4.4 (dcaf3e7d9e, 2026-05-05)"
   xmlns:inkscape="http://www.inkscape.org/namespaces/inkscape"
   xmlns:sodipodi="http://sodipodi.sourceforge.net/DTD/sodipodi-0.dtd"
   xmlns="http://www.w3.org/2000/svg"
   xmlns:svg="http://www.w3.org/2000/svg">
  <defs
     id="defs4" />
  <sodipodi:namedview
     id="namedview4"
     pagecolor="#ffffff"
     bordercolor="#000000"
     borderopacity="0.25"
     inkscape:showpageshadow="2"
     inkscape:pageopacity="0.0"
     inkscape:pagecheckerboard="0"
     inkscape:deskcolor="#d1d1d1"
     inkscape:zoom="37.15625"
     inkscape:cx="16"
     inkscape:cy="16"
     inkscape:window-width="2560"
     inkscape:window-height="1397"
     inkscape:window-x="0"
     inkscape:window-y="0"
     inkscape:window-maximized="1"
     inkscape:current-layer="svg4" />
  <circle
     style="opacity:0.2"
     cx="16"
     cy="17"
     r="14"
     id="circle1" />
  <circle
     style="fill:#fd2424;fill-opacity:1"
     cx="16"
     cy="16"
     r="14"
     id="circle2" />
  <path
     style="opacity:0.2;fill:#ffffff"
     d="M 16,2 A 14,14 0 0 0 2,16 14,14 0 0 0 2.0215,16.586 14,14 0 0 1 16,3 14,14 0 0 1 29.979,16.414 14,14 0 0 0 30,16 14,14 0 0 0 16,2 Z"
     id="path2" />
  <path
     style="opacity:0.2"
     d="M 16,5 A 12,12 0 0 0 4,17 12,12 0 0 0 16,29 12,12 0 0 0 27.695,19.646 9,9 0 0 1 20,24 9,9 0 0 1 11,15 9,9 0 0 1 20,6 9,9 0 0 1 20.873,6.043 12,12 0 0 0 16,5 Z M 20,7 A 8,8 0 0 0 12,15 8,8 0 0 0 20,23 8,8 0 0 0 28,15 8,8 0 0 0 20,7 Z M 20,9 A 6,6 0 0 1 26,15 6,6 0 0 1 20,21 6,6 0 0 1 14,15 6,6 0 0 1 20,9 Z"
     id="path3" />
  <path
     style="fill:#ffdb08;fill-opacity:1"
     d="M 16,4 A 12,12 0 0 0 4,16 12,12 0 0 0 16,28 12,12 0 0 0 27.695,18.646 9,9 0 0 1 20,23 9,9 0 0 1 11,14 9,9 0 0 1 20,5 9,9 0 0 1 20.873,5.043 12,12 0 0 0 16,4 Z M 20,6 A 8,8 0 0 0 12,14 8,8 0 0 0 20,22 8,8 0 0 0 28,14 8,8 0 0 0 20,6 Z M 20,8 A 6,6 0 0 1 26,14 6,6 0 0 1 20,20 6,6 0 0 1 14,14 6,6 0 0 1 20,8 Z"
     id="path4" />
</svg>
