<?xml version="1.0" encoding="UTF-8" standalone="no"?>
<svg
   width="32"
   height="32"
   version="1.1"
   id="svg8"
   sodipodi:docname="nautilus.svg"
   inkscape:version="1.4.4 (dcaf3e7d9e, 2026-05-05)"
   xmlns:inkscape="http://www.inkscape.org/namespaces/inkscape"
   xmlns:sodipodi="http://sodipodi.sourceforge.net/DTD/sodipodi-0.dtd"
   xmlns="http://www.w3.org/2000/svg"
   xmlns:svg="http://www.w3.org/2000/svg">
  <defs
     id="defs8" />
  <sodipodi:namedview
     id="namedview8"
     pagecolor="#ffffff"
     bordercolor="#000000"
     borderopacity="0.25"
     inkscape:showpageshadow="2"
     inkscape:pageopacity="0.0"
     inkscape:pagecheckerboard="0"
     inkscape:deskcolor="#d1d1d1"
     inkscape:zoom="37.15625"
     inkscape:cx="16"
     inkscape:cy="16"
     inkscape:window-width="2560"
     inkscape:window-height="1397"
     inkscape:window-x="0"
     inkscape:window-y="0"
     inkscape:window-maximized="1"
     inkscape:current-layer="svg8" />
  <rect
     style="opacity:0.2"
     width="23"
     height="10"
     x="5"
     y="21"
     rx="2.156"
     ry="2.143"
     id="rect1" />
  <path
     style="fill:#c01515;fill-opacity:1"
     d="M 7.15625,2 C 5.9616875,2 5,2.9366 5,4.1 V 6.9 9 14 H 28 V 9 6.9 4.1 C 28,2.9366 27.038312,2 25.84375,2 Z"
     id="path1" />
  <path
     style="fill:#e51e1e;fill-opacity:1"
     d="M 7.15625,10 C 5.9616875,10 5,10.9366 5,12.1 v 2.8 2.1 6 H 28 V 17 14.9 12.1 C 28,10.9366 27.038312,10 25.84375,10 Z"
     id="path2" />
  <rect
     style="fill:#f54242;fill-opacity:1"
     width="23"
     height="10"
     x="5.0269132"
     y="20"
     rx="2.1559999"
     ry="2.1429999"
     id="rect2" />
  <rect
     style="fill:#f6c300;fill-opacity:1"
     width="5"
     height="1"
     x="14"
     y="6"
     rx=".5"
     ry=".5"
     id="rect3" />
  <rect
     style="fill:#ffe00e;fill-opacity:1"
     width="5"
     height="1"
     x="14"
     y="15"
     rx=".5"
     ry=".5"
     id="rect4" />
  <rect
     style="fill:#ffcc18;fill-opacity:1"
     width="5"
     height="1"
     x="14"
     y="24"
     rx=".5"
     ry=".5"
     id="rect5" />
  <path
     style="opacity:0.1;fill:#ffffff"
     d="M 7.15625 2 C 5.9616875 2 5 2.9362094 5 4.0996094 L 5 5.0996094 C 5 3.9362094 5.9616875 3 7.15625 3 L 25.84375 3 C 27.038312 3 28 3.9362094 28 5.0996094 L 28 4.0996094 C 28 2.9362094 27.038312 2 25.84375 2 L 7.15625 2 z"
     id="path5" />
  <path
     style="opacity:0.1;fill:#ffffff"
     d="M 7.15625 10 C 5.9616875 10 5 10.936209 5 12.099609 L 5 13.099609 C 5 11.936209 5.9616875 11 7.15625 11 L 25.84375 11 C 27.038312 11 28 11.936209 28 13.099609 L 28 12.099609 C 28 10.936209 27.038312 10 25.84375 10 L 7.15625 10 z"
     id="path6" />
  <path
     style="opacity:0.2;fill:#ffffff"
     d="M 7.15625 20 C 5.9616875 20 5 20.955435 5 22.142578 L 5 23.142578 C 5 21.955435 5.9616875 21 7.15625 21 L 25.84375 21 C 27.038312 21 28 21.955435 28 23.142578 L 28 22.142578 C 28 20.955435 27.038312 20 25.84375 20 L 7.15625 20 z"
     id="path7" />
  <path
     style="opacity:0.2"
     d="M 14.5,7 C 14.223,7 14,7.223 14,7.5 14,7.777 14.223,8 14.5,8 h 4 C 18.777,8 19,7.777 19,7.5 19,7.223 18.777,7 18.5,7 Z m 0,9 c -0.277,0 -0.5,0.223 -0.5,0.5 0,0.277 0.223,0.5 0.5,0.5 h 4 C 18.777,17 19,16.777 19,16.5 19,16.223 18.777,16 18.5,16 Z m 0,9 c -0.277,0 -0.5,0.223 -0.5,0.5 0,0.277 0.223,0.5 0.5,0.5 h 4 C 18.777,26 19,25.777 19,25.5 19,25.223 18.777,25 18.5,25 Z"
     id="path8" />
</svg>
