<?xml version="1.0" encoding="UTF-8" standalone="no"?>
<svg
   width="32"
   height="32"
   version="1.1"
   id="svg4"
   sodipodi:docname="org.kde.dolphin.svg"
   inkscape:version="1.4.4 (dcaf3e7d9e, 2026-05-05)"
   xmlns:inkscape="http://www.inkscape.org/namespaces/inkscape"
   xmlns:sodipodi="http://sodipodi.sourceforge.net/DTD/sodipodi-0.dtd"
   xmlns="http://www.w3.org/2000/svg"
   xmlns:svg="http://www.w3.org/2000/svg">
  <defs
     id="defs4" />
  <sodipodi:namedview
     id="namedview4"
     pagecolor="#ffffff"
     bordercolor="#000000"
     borderopacity="0.25"
     inkscape:showpageshadow="2"
     inkscape:pageopacity="0.0"
     inkscape:pagecheckerboard="0"
     inkscape:deskcolor="#d1d1d1"
     inkscape:zoom="37.15625"
     inkscape:cx="16"
     inkscape:cy="16"
     inkscape:window-width="2544"
     inkscape:window-height="1381"
     inkscape:window-x="0"
     inkscape:window-y="0"
     inkscape:window-maximized="0"
     inkscape:current-layer="svg4" />
  <path
     style="opacity:0.2"
     d="m 13.2,13 c -0.7,1.57e-4 -1.4,2.000157 -2.748222,2 H 2.0000003 v 0.08694 L 2,26.913064 C 1.9999999,29 4.1,29 4.1,29 l 23.8,-1.57e-4 C 27.9,29 30,29 30,26.913064 V 13 Z"
     id="path1" />
  <path
     style="fill:#a05a2c"
     d="M 2.0000003,17 H 30 V 7.200158 c 0,-2.1 -2.1,-2.2000791 -2.1,-2.2000791 L 16,4.9999211 C 15.3,5.0000789 14.519096,2.9999903 13.239831,3.0000109 L 4.1,3.000158 c 0,0 -2.1,0 -2.1,2.1 z"
     id="path2" />
  <rect
     style="fill:#ffffff"
     width="26"
     height="6.3"
     x="3"
     y="8"
     rx=".684"
     ry=".7"
     id="rect2" />
  <path
     style="fill:#a05a2c;fill-opacity:1"
     d="m 13.2,12 c -0.7,1.57e-4 -1.4,2.000157 -2.748222,2 H 2.0000003 v 0.08694 L 2,25.913064 C 1.9999999,28 4.1,28 4.1,28 l 23.8,-1.57e-4 C 27.9,28 30,28 30,25.913064 V 12 Z"
     id="path3" />
  <path
     style="fill:#ffffff;opacity:0.1"
     d="M 4.0996094 3 C 4.0996094 3 2 2.9996094 2 5.0996094 L 2 6.0996094 C 2 3.9996094 4.0996094 4 4.0996094 4 L 13.240234 4 C 14.519499 3.9999794 15.3 6.0001578 16 6 L 27.900391 6 C 27.900391 6 30 6.0992188 30 8.1992188 L 30 7.1992188 C 30 5.0992188 27.900391 5 27.900391 5 L 16 5 C 15.3 5.0001578 14.519499 2.9999794 13.240234 3 L 4.0996094 3 z"
     id="path4" />
</svg>
