<?xml version="1.0" encoding="UTF-8" standalone="no"?>
<svg
   width="16"
   height="16"
   viewBox="0 0 16 16"
   version="1.1"
   id="svg1"
   sodipodi:docname="folder-mail-cloud.svg"
   inkscape:version="1.4.4 (dcaf3e7d9e, 2026-05-05)"
   xmlns:inkscape="http://www.inkscape.org/namespaces/inkscape"
   xmlns:sodipodi="http://sodipodi.sourceforge.net/DTD/sodipodi-0.dtd"
   xmlns="http://www.w3.org/2000/svg"
   xmlns:svg="http://www.w3.org/2000/svg">
  <sodipodi:namedview
     id="namedview1"
     pagecolor="#ffffff"
     bordercolor="#000000"
     borderopacity="0.25"
     inkscape:showpageshadow="2"
     inkscape:pageopacity="0.0"
     inkscape:pagecheckerboard="0"
     inkscape:deskcolor="#d1d1d1"
     inkscape:zoom="74.3125"
     inkscape:cx="8"
     inkscape:cy="8"
     inkscape:window-width="2560"
     inkscape:window-height="1397"
     inkscape:window-x="0"
     inkscape:window-y="0"
     inkscape:window-maximized="1"
     inkscape:current-layer="svg1" />
  <defs
     id="defs1">
    <style
       id="current-color-scheme"
       type="text/css">
   .ColorScheme-Text { color:#dfdfdf; } .ColorScheme-Highlight { color:#4285f4; } .ColorScheme-NeutralText { color:#ff9800; } .ColorScheme-PositiveText { color:#4caf50; } .ColorScheme-NegativeText { color:#f44336; }
  </style>
  </defs>
  <path
     style="fill:#ffd42a"
     class="ColorScheme-Text"
     d="M 8 3 A 5 5 0 0 0 3.2675781 6.3984375 A 4 4 0 0 0 1 10 A 4 4 0 0 0 5 14 A 4 4 0 0 0 7.6582031 12.982422 A 5 5 0 0 0 8 13 A 5 5 0 0 0 10.113281 12.525391 A 4 4 0 0 0 12 13 A 4 4 0 0 0 16 9 A 4 4 0 0 0 12 5 A 4 4 0 0 0 11.992188 5 A 5 5 0 0 0 8 3 z"
     id="path1" />
</svg>
